<mxfile host="app.diagrams.net" modified="2022-08-16T14:48:51.281Z" agent="5.0 (Macintosh; Intel Mac OS X 10_15_7) AppleWebKit/537.36 (KHTML, like Gecko) Chrome/104.0.0.0 Safari/537.36" etag="tc9L1_HPVCRTFvusiDWV" version="20.2.3" type="github">
  <diagram id="D66kP5a0QggF74vHpiJR" name="Trang-1">
    <mxGraphModel dx="717" dy="587" grid="1" gridSize="10" guides="1" tooltips="1" connect="1" arrows="1" fold="1" page="0" pageScale="1" pageWidth="827" pageHeight="1169" math="0" shadow="0">
      <root>
        <mxCell id="0" />
        <mxCell id="1" parent="0" />
        <mxCell id="GLwlBK2BYxH5H2xeWFjT-4" value="web log" style="swimlane;" vertex="1" parent="1">
          <mxGeometry x="40" y="100" width="100" height="50" as="geometry" />
        </mxCell>
        <mxCell id="GLwlBK2BYxH5H2xeWFjT-6" value="" style="curved=1;endArrow=classic;html=1;rounded=0;" edge="1" parent="1">
          <mxGeometry width="50" height="50" relative="1" as="geometry">
            <mxPoint x="150" y="130" as="sourcePoint" />
            <mxPoint x="230" y="230" as="targetPoint" />
            <Array as="points">
              <mxPoint x="220" y="130" />
              <mxPoint x="250" y="160" />
            </Array>
          </mxGeometry>
        </mxCell>
        <mxCell id="GLwlBK2BYxH5H2xeWFjT-7" value="call domain with parameters" style="text;html=1;strokeColor=none;fillColor=none;align=center;verticalAlign=middle;whiteSpace=wrap;rounded=0;rotation=0;" vertex="1" parent="1">
          <mxGeometry x="134" y="144" width="110" height="40" as="geometry" />
        </mxCell>
        <mxCell id="GLwlBK2BYxH5H2xeWFjT-8" value="" style="endArrow=classic;html=1;rounded=0;" edge="1" parent="1">
          <mxGeometry width="50" height="50" relative="1" as="geometry">
            <mxPoint x="270" y="284.76" as="sourcePoint" />
            <mxPoint x="350" y="284.76" as="targetPoint" />
          </mxGeometry>
        </mxCell>
        <mxCell id="GLwlBK2BYxH5H2xeWFjT-9" value="API" style="text;html=1;strokeColor=none;fillColor=none;align=center;verticalAlign=middle;whiteSpace=wrap;rounded=0;" vertex="1" parent="1">
          <mxGeometry x="270" y="286" width="60" height="30" as="geometry" />
        </mxCell>
        <mxCell id="GLwlBK2BYxH5H2xeWFjT-12" value="" style="endArrow=classic;html=1;rounded=0;" edge="1" parent="1">
          <mxGeometry width="50" height="50" relative="1" as="geometry">
            <mxPoint x="470.0000000000001" y="286.26" as="sourcePoint" />
            <mxPoint x="550" y="286.26" as="targetPoint" />
          </mxGeometry>
        </mxCell>
        <mxCell id="GLwlBK2BYxH5H2xeWFjT-15" value="" style="group" vertex="1" connectable="0" parent="1">
          <mxGeometry x="355" y="240" width="100" height="93" as="geometry" />
        </mxCell>
        <mxCell id="GLwlBK2BYxH5H2xeWFjT-14" value="" style="rounded=1;whiteSpace=wrap;html=1;fillColor=none;" vertex="1" parent="GLwlBK2BYxH5H2xeWFjT-15">
          <mxGeometry width="100" height="90" as="geometry" />
        </mxCell>
        <mxCell id="GLwlBK2BYxH5H2xeWFjT-10" value="" style="verticalLabelPosition=bottom;html=1;verticalAlign=top;align=center;strokeColor=none;fillColor=#EA6B66;shape=mxgraph.azure.git_repository;" vertex="1" parent="GLwlBK2BYxH5H2xeWFjT-15">
          <mxGeometry x="25" y="20" width="50" height="50" as="geometry" />
        </mxCell>
        <mxCell id="GLwlBK2BYxH5H2xeWFjT-11" value="&lt;b&gt;Gitlab&lt;/b&gt;" style="text;html=1;strokeColor=none;fillColor=none;align=center;verticalAlign=middle;whiteSpace=wrap;rounded=0;" vertex="1" parent="GLwlBK2BYxH5H2xeWFjT-15">
          <mxGeometry x="21" y="63" width="60" height="30" as="geometry" />
        </mxCell>
        <mxCell id="GLwlBK2BYxH5H2xeWFjT-16" value="" style="group" vertex="1" connectable="0" parent="1">
          <mxGeometry x="154" y="220" width="106" height="110" as="geometry" />
        </mxCell>
        <mxCell id="GLwlBK2BYxH5H2xeWFjT-2" value="" style="rounded=1;whiteSpace=wrap;html=1;" vertex="1" parent="GLwlBK2BYxH5H2xeWFjT-16">
          <mxGeometry x="6" y="20" width="100" height="90" as="geometry" />
        </mxCell>
        <mxCell id="GLwlBK2BYxH5H2xeWFjT-3" value="" style="shape=image;verticalLabelPosition=bottom;labelBackgroundColor=default;verticalAlign=top;aspect=fixed;imageAspect=0;image=https://www.jenkins.io/images/logos/cossack/cossack.png;" vertex="1" parent="GLwlBK2BYxH5H2xeWFjT-16">
          <mxGeometry width="69.64" height="60" as="geometry" />
        </mxCell>
        <mxCell id="GLwlBK2BYxH5H2xeWFjT-5" value="&lt;b&gt;pipeline create gitlab project&lt;/b&gt;" style="text;html=1;strokeColor=none;fillColor=none;align=center;verticalAlign=middle;whiteSpace=wrap;rounded=0;" vertex="1" parent="GLwlBK2BYxH5H2xeWFjT-16">
          <mxGeometry x="9" y="38" width="92" height="62" as="geometry" />
        </mxCell>
        <mxCell id="GLwlBK2BYxH5H2xeWFjT-17" value="" style="group" vertex="1" connectable="0" parent="1">
          <mxGeometry x="560" y="240" width="110" height="93" as="geometry" />
        </mxCell>
        <mxCell id="GLwlBK2BYxH5H2xeWFjT-18" value="" style="rounded=1;whiteSpace=wrap;html=1;fillColor=none;" vertex="1" parent="GLwlBK2BYxH5H2xeWFjT-17">
          <mxGeometry width="100" height="90" as="geometry" />
        </mxCell>
        <mxCell id="GLwlBK2BYxH5H2xeWFjT-19" value="" style="verticalLabelPosition=bottom;html=1;verticalAlign=top;align=center;strokeColor=none;fillColor=#EA6B66;shape=mxgraph.azure.git_repository;" vertex="1" parent="GLwlBK2BYxH5H2xeWFjT-17">
          <mxGeometry x="25" y="20" width="50" height="50" as="geometry" />
        </mxCell>
        <mxCell id="GLwlBK2BYxH5H2xeWFjT-20" value="&lt;b&gt;Gitlab Project&lt;/b&gt;" style="text;html=1;strokeColor=none;fillColor=none;align=center;verticalAlign=middle;whiteSpace=wrap;rounded=0;" vertex="1" parent="GLwlBK2BYxH5H2xeWFjT-17">
          <mxGeometry x="8.5" y="63" width="89" height="30" as="geometry" />
        </mxCell>
        <mxCell id="GLwlBK2BYxH5H2xeWFjT-21" value="Provisioning" style="text;html=1;strokeColor=none;fillColor=none;align=center;verticalAlign=middle;whiteSpace=wrap;rounded=0;" vertex="1" parent="1">
          <mxGeometry x="480" y="286" width="60" height="30" as="geometry" />
        </mxCell>
        <mxCell id="GLwlBK2BYxH5H2xeWFjT-22" value="" style="group" vertex="1" connectable="0" parent="1">
          <mxGeometry x="260" y="409" width="106" height="110" as="geometry" />
        </mxCell>
        <mxCell id="GLwlBK2BYxH5H2xeWFjT-23" value="" style="rounded=1;whiteSpace=wrap;html=1;" vertex="1" parent="GLwlBK2BYxH5H2xeWFjT-22">
          <mxGeometry x="6" y="20" width="100" height="90" as="geometry" />
        </mxCell>
        <mxCell id="GLwlBK2BYxH5H2xeWFjT-24" value="" style="shape=image;verticalLabelPosition=bottom;labelBackgroundColor=default;verticalAlign=top;aspect=fixed;imageAspect=0;image=https://www.jenkins.io/images/logos/cossack/cossack.png;" vertex="1" parent="GLwlBK2BYxH5H2xeWFjT-22">
          <mxGeometry width="69.64" height="60" as="geometry" />
        </mxCell>
        <mxCell id="GLwlBK2BYxH5H2xeWFjT-25" value="&lt;b&gt;pipeline associate&lt;/b&gt;&lt;br&gt;&lt;b&gt;&amp;nbsp;project owner&lt;/b&gt;" style="text;html=1;strokeColor=none;fillColor=none;align=center;verticalAlign=middle;whiteSpace=wrap;rounded=0;" vertex="1" parent="GLwlBK2BYxH5H2xeWFjT-22">
          <mxGeometry x="9" y="47" width="92" height="62" as="geometry" />
        </mxCell>
        <mxCell id="GLwlBK2BYxH5H2xeWFjT-27" value="" style="curved=1;endArrow=classic;html=1;rounded=0;" edge="1" parent="1">
          <mxGeometry width="50" height="50" relative="1" as="geometry">
            <mxPoint x="270" y="320" as="sourcePoint" />
            <mxPoint x="350" y="420" as="targetPoint" />
            <Array as="points">
              <mxPoint x="340" y="320" />
              <mxPoint x="370" y="350" />
            </Array>
          </mxGeometry>
        </mxCell>
        <mxCell id="GLwlBK2BYxH5H2xeWFjT-28" value="Trigger" style="text;html=1;strokeColor=none;fillColor=none;align=center;verticalAlign=middle;whiteSpace=wrap;rounded=0;rotation=0;" vertex="1" parent="1">
          <mxGeometry x="258" y="316" width="110" height="40" as="geometry" />
        </mxCell>
      </root>
    </mxGraphModel>
  </diagram>
</mxfile>
